<svg width="1215" height="357" viewBox="0 0 1215 357" fill="none" xmlns="http://www.w3.org/2000/svg">
<rect y="91" width="1144" height="266" fill="#0029FD"/>
<rect x="28" y="132" width="1085" height="193" fill="#FFE609"/>
<path d="M34.75 228.75C34.75 211.75 38.5833 196.5 46.25 183C53.9167 169.333 64.3333 158.667 77.5 151C90.8333 143.333 105.583 139.5 121.75 139.5C140.75 139.5 157.333 144.083 171.5 153.25C185.667 162.417 196 175.417 202.5 192.25H175.25C170.417 181.75 163.417 173.667 154.25 168C145.25 162.333 134.417 159.5 121.75 159.5C109.583 159.5 98.6667 162.333 89 168C79.3333 173.667 71.75 181.75 66.25 192.25C60.75 202.583 58 214.75 58 228.75C58 242.583 60.75 254.75 66.25 265.25C71.75 275.583 79.3333 283.583 89 289.25C98.6667 294.917 109.583 297.75 121.75 297.75C134.417 297.75 145.25 295 154.25 289.5C163.417 283.833 170.417 275.75 175.25 265.25H202.5C196 281.917 185.667 294.833 171.5 304C157.333 313 140.75 317.5 121.75 317.5C105.583 317.5 90.8333 313.75 77.5 306.25C64.3333 298.583 53.9167 288 46.25 274.5C38.5833 261 34.75 245.75 34.75 228.75ZM315.365 317.75C299.199 317.75 284.449 314 271.115 306.5C257.782 298.833 247.199 288.25 239.365 274.75C231.699 261.083 227.865 245.75 227.865 228.75C227.865 211.75 231.699 196.5 239.365 183C247.199 169.333 257.782 158.75 271.115 151.25C284.449 143.583 299.199 139.75 315.365 139.75C331.699 139.75 346.532 143.583 359.865 151.25C373.199 158.75 383.699 169.25 391.365 182.75C399.032 196.25 402.865 211.583 402.865 228.75C402.865 245.917 399.032 261.25 391.365 274.75C383.699 288.25 373.199 298.833 359.865 306.5C346.532 314 331.699 317.75 315.365 317.75ZM315.365 298C327.532 298 338.449 295.167 348.115 289.5C357.949 283.833 365.615 275.75 371.115 265.25C376.782 254.75 379.615 242.583 379.615 228.75C379.615 214.75 376.782 202.583 371.115 192.25C365.615 181.75 358.032 173.667 348.365 168C338.699 162.333 327.699 159.5 315.365 159.5C303.032 159.5 292.032 162.333 282.365 168C272.699 173.667 265.032 181.75 259.365 192.25C253.865 202.583 251.115 214.75 251.115 228.75C251.115 242.583 253.865 254.75 259.365 265.25C265.032 275.75 272.699 283.833 282.365 289.5C292.199 295.167 303.199 298 315.365 298ZM569.898 316H547.148L455.648 177.25V316H432.898V141.5H455.648L547.148 280V141.5H569.898V316ZM745.68 316H722.93L631.43 177.25V316H608.68V141.5H631.43L722.93 280V141.5H745.68V316ZM863.461 317.75C847.294 317.75 832.544 314 819.211 306.5C805.878 298.833 795.294 288.25 787.461 274.75C779.794 261.083 775.961 245.75 775.961 228.75C775.961 211.75 779.794 196.5 787.461 183C795.294 169.333 805.878 158.75 819.211 151.25C832.544 143.583 847.294 139.75 863.461 139.75C879.794 139.75 894.628 143.583 907.961 151.25C921.294 158.75 931.794 169.25 939.461 182.75C947.128 196.25 950.961 211.583 950.961 228.75C950.961 245.917 947.128 261.25 939.461 274.75C931.794 288.25 921.294 298.833 907.961 306.5C894.628 314 879.794 317.75 863.461 317.75ZM863.461 298C875.628 298 886.544 295.167 896.211 289.5C906.044 283.833 913.711 275.75 919.211 265.25C924.878 254.75 927.711 242.583 927.711 228.75C927.711 214.75 924.878 202.583 919.211 192.25C913.711 181.75 906.128 173.667 896.461 168C886.794 162.333 875.794 159.5 863.461 159.5C851.128 159.5 840.128 162.333 830.461 168C820.794 173.667 813.128 181.75 807.461 192.25C801.961 202.583 799.211 214.75 799.211 228.75C799.211 242.583 801.961 254.75 807.461 265.25C813.128 275.75 820.794 283.833 830.461 289.5C840.294 295.167 851.294 298 863.461 298ZM1072.74 316L1031.24 244.75H1003.74V316H980.994V141.75H1037.24C1050.41 141.75 1061.49 144 1070.49 148.5C1079.66 153 1086.49 159.083 1090.99 166.75C1095.49 174.417 1097.74 183.167 1097.74 193C1097.74 205 1094.24 215.583 1087.24 224.75C1080.41 233.917 1070.08 240 1056.24 243L1099.99 316H1072.74ZM1003.74 226.5H1037.24C1049.58 226.5 1058.83 223.5 1064.99 217.5C1071.16 211.333 1074.24 203.167 1074.24 193C1074.24 182.667 1071.16 174.667 1064.99 169C1058.99 163.333 1049.74 160.5 1037.24 160.5H1003.74V226.5Z" fill="#F20404"/>
<path d="M46.25 183L47.9891 183.988L47.9943 183.979L46.25 183ZM77.5 151L76.503 149.266L76.4936 149.272L77.5 151ZM171.5 153.25L172.587 151.571L172.587 151.571L171.5 153.25ZM202.5 192.25V194.25H205.416L204.366 191.53L202.5 192.25ZM175.25 192.25L173.433 193.086L173.969 194.25H175.25V192.25ZM154.25 168L153.184 169.692L153.191 169.697L153.198 169.701L154.25 168ZM89 168L90.0114 169.725L90.0114 169.725L89 168ZM66.25 192.25L68.0155 193.19L68.0217 193.178L66.25 192.25ZM66.25 265.25L64.4783 266.178L64.4845 266.19L66.25 265.25ZM89 289.25L90.0114 287.525L90.0114 287.525L89 289.25ZM154.25 289.5L155.293 291.207L155.302 291.201L154.25 289.5ZM175.25 265.25V263.25H173.969L173.433 264.414L175.25 265.25ZM202.5 265.25L204.363 265.977L205.427 263.25H202.5V265.25ZM171.5 304L172.572 305.688L172.58 305.684L172.587 305.679L171.5 304ZM77.5 306.25L76.4936 307.978L76.5065 307.986L76.5195 307.993L77.5 306.25ZM46.25 274.5L47.9891 273.512L46.25 274.5ZM36.75 228.75C36.75 212.062 40.5094 197.158 47.9891 183.988L44.5109 182.012C36.6573 195.842 32.75 211.438 32.75 228.75H36.75ZM47.9943 183.979C55.4915 170.614 65.6573 160.21 78.5064 152.728L76.4936 149.272C63.0094 157.123 52.3418 168.053 44.5057 182.021L47.9943 183.979ZM78.4969 152.734C91.5112 145.251 105.915 141.5 121.75 141.5V137.5C105.252 137.5 90.1554 141.416 76.5031 149.266L78.4969 152.734ZM121.75 141.5C140.415 141.5 156.61 145.998 170.414 154.929L172.587 151.571C158.057 142.169 141.085 137.5 121.75 137.5V141.5ZM170.414 154.929C184.201 163.85 194.275 176.502 200.634 192.97L204.366 191.53C197.725 174.331 187.133 160.983 172.587 151.571L170.414 154.929ZM202.5 190.25H175.25V194.25H202.5V190.25ZM177.067 191.414C172.081 180.584 164.827 172.187 155.302 166.299L153.198 169.701C162.006 175.146 168.752 182.916 173.433 193.086L177.067 191.414ZM155.316 166.308C145.94 160.404 134.721 157.5 121.75 157.5V161.5C134.112 161.5 144.56 164.262 153.184 169.692L155.316 166.308ZM121.75 157.5C109.259 157.5 97.9881 160.413 87.9886 166.275L90.0114 169.725C99.3453 164.254 109.907 161.5 121.75 161.5V157.5ZM87.9886 166.275C77.9798 172.142 70.1416 180.51 64.4783 191.322L68.0217 193.178C73.3584 182.99 80.6868 175.192 90.0114 169.725L87.9886 166.275ZM64.4845 191.31C58.8031 201.985 56 214.486 56 228.75H60C60 215.014 62.6969 203.182 68.0155 193.19L64.4845 191.31ZM56 228.75C56 242.852 58.8051 255.347 64.4783 266.178L68.0217 264.322C62.6949 254.153 60 242.314 60 228.75H56ZM64.4845 266.19C70.1502 276.834 77.9881 285.113 87.9886 290.975L90.0114 287.525C80.6786 282.054 73.3498 274.332 68.0155 264.31L64.4845 266.19ZM87.9886 290.975C97.9881 296.837 109.259 299.75 121.75 299.75V295.75C109.907 295.75 99.3453 292.996 90.0114 287.525L87.9886 290.975ZM121.75 299.75C134.71 299.75 145.921 296.934 155.293 291.207L153.207 287.793C144.579 293.066 134.123 295.75 121.75 295.75V299.75ZM155.302 291.201C164.827 285.313 172.081 276.916 177.067 266.086L173.433 264.414C168.752 274.584 162.006 282.354 153.198 287.799L155.302 291.201ZM175.25 267.25H202.5V263.25H175.25V267.25ZM200.637 264.523C194.28 280.824 184.206 293.396 170.414 302.321L172.587 305.679C187.128 296.27 197.721 283.01 204.363 265.977L200.637 264.523ZM170.428 302.312C156.622 311.082 140.422 315.5 121.75 315.5V319.5C141.078 319.5 158.044 314.918 172.572 305.688L170.428 302.312ZM121.75 315.5C105.907 315.5 91.4974 311.829 78.4805 304.507L76.5195 307.993C90.1693 315.671 105.26 319.5 121.75 319.5V315.5ZM78.5064 304.522C65.6511 297.036 55.4847 286.711 47.9891 273.512L44.5109 275.488C52.3486 289.289 63.0155 300.13 76.4936 307.978L78.5064 304.522ZM47.9891 273.512C40.5094 260.342 36.75 245.438 36.75 228.75H32.75C32.75 246.062 36.6573 261.658 44.5109 275.488L47.9891 273.512ZM271.115 306.5L270.118 308.234L270.126 308.239L270.135 308.243L271.115 306.5ZM239.365 274.75L237.621 275.729L237.628 275.741L237.635 275.754L239.365 274.75ZM239.365 183L237.63 182.005L237.626 182.012L239.365 183ZM271.115 151.25L272.096 152.993L272.104 152.989L272.112 152.984L271.115 151.25ZM359.865 151.25L358.868 152.984L358.876 152.989L358.885 152.993L359.865 151.25ZM391.365 182.75L393.104 181.762L393.104 181.762L391.365 182.75ZM359.865 306.5L360.846 308.243L360.854 308.239L360.862 308.234L359.865 306.5ZM348.115 289.5L347.117 287.767L347.11 287.771L347.104 287.775L348.115 289.5ZM371.115 265.25L369.355 264.3L369.349 264.311L369.344 264.322L371.115 265.25ZM371.115 192.25L369.344 193.178L369.352 193.195L369.362 193.212L371.115 192.25ZM348.365 168L347.354 169.725L347.354 169.725L348.365 168ZM282.365 168L283.377 169.725L283.377 169.725L282.365 168ZM259.365 192.25L257.605 191.3L257.6 191.31L259.365 192.25ZM259.365 265.25L257.594 266.178L257.599 266.189L257.605 266.2L259.365 265.25ZM282.365 289.5L281.354 291.225L281.36 291.229L281.367 291.233L282.365 289.5ZM315.365 315.75C299.522 315.75 285.113 312.079 272.096 304.757L270.135 308.243C283.785 315.921 298.875 319.75 315.365 319.75V315.75ZM272.112 304.766C259.088 297.277 248.755 286.948 241.095 273.746L237.635 275.754C245.642 289.552 256.476 300.39 270.118 308.234L272.112 304.766ZM241.11 273.771C233.625 260.429 229.865 245.437 229.865 228.75H225.865C225.865 246.063 229.773 261.738 237.621 275.729L241.11 273.771ZM229.865 228.75C229.865 212.062 233.625 197.158 241.104 183.988L237.626 182.012C229.773 195.842 225.865 211.438 225.865 228.75H229.865ZM241.1 183.995C248.76 170.631 259.087 160.311 272.096 152.993L270.135 149.507C256.477 157.189 245.637 168.035 237.63 182.005L241.1 183.995ZM272.112 152.984C285.126 145.501 299.53 141.75 315.365 141.75V137.75C298.867 137.75 283.771 141.666 270.118 149.516L272.112 152.984ZM315.365 141.75C331.371 141.75 345.857 145.502 358.868 152.984L360.862 149.516C347.207 141.664 332.026 137.75 315.365 137.75V141.75ZM358.885 152.993C371.896 160.312 382.136 170.549 389.626 183.738L393.104 181.762C385.261 167.951 374.501 157.188 360.846 149.507L358.885 152.993ZM389.626 183.738C397.104 196.906 400.865 211.892 400.865 228.75H404.865C404.865 211.275 400.96 195.594 393.104 181.762L389.626 183.738ZM400.865 228.75C400.865 245.608 397.104 260.594 389.626 273.762L393.104 275.738C400.96 261.906 404.865 246.225 404.865 228.75H400.865ZM389.626 273.762C382.134 286.955 371.889 297.279 358.868 304.766L360.862 308.234C374.508 300.387 385.263 289.545 393.104 275.738L389.626 273.762ZM358.885 304.757C345.871 312.077 331.379 315.75 315.365 315.75V319.75C332.018 319.75 347.193 315.923 360.846 308.243L358.885 304.757ZM315.365 300C327.856 300 339.127 297.087 349.127 291.225L347.104 287.775C337.77 293.246 327.208 296 315.365 296V300ZM349.114 291.233C359.291 285.368 367.219 276.999 372.887 266.178L369.344 264.322C364.011 274.501 356.606 282.299 347.117 287.767L349.114 291.233ZM372.875 266.2C378.723 255.365 381.615 242.862 381.615 228.75H377.615C377.615 242.305 374.841 254.135 369.355 264.3L372.875 266.2ZM381.615 228.75C381.615 214.477 378.725 201.967 372.869 191.288L369.362 193.212C374.839 203.199 377.615 215.023 377.615 228.75H381.615ZM372.887 191.322C367.224 180.51 359.385 172.142 349.377 166.275L347.354 169.725C356.678 175.192 364.007 182.99 369.344 193.178L372.887 191.322ZM349.377 166.275C339.373 160.41 328.017 157.5 315.365 157.5V161.5C327.38 161.5 338.024 164.256 347.354 169.725L349.377 166.275ZM315.365 157.5C302.713 157.5 291.357 160.41 281.354 166.275L283.377 169.725C292.706 164.256 303.351 161.5 315.365 161.5V157.5ZM281.354 166.275C271.351 172.139 263.434 180.5 257.605 191.3L261.125 193.2C266.63 183 274.046 175.195 283.377 169.725L281.354 166.275ZM257.6 191.31C251.918 201.985 249.115 214.486 249.115 228.75H253.115C253.115 215.014 255.812 203.182 261.131 193.19L257.6 191.31ZM249.115 228.75C249.115 242.852 251.92 255.347 257.594 266.178L261.137 264.322C255.81 254.153 253.115 242.314 253.115 228.75H249.115ZM257.605 266.2C263.434 277 271.351 285.361 281.354 291.225L283.377 287.775C274.046 282.305 266.63 274.5 261.125 264.3L257.605 266.2ZM281.367 291.233C291.526 297.087 302.874 300 315.365 300V296C303.523 296 292.872 293.246 283.364 287.767L281.367 291.233ZM569.898 316V318H571.898V316H569.898ZM547.148 316L545.479 317.101L546.072 318H547.148V316ZM455.648 177.25L457.318 176.149L453.648 170.584V177.25H455.648ZM455.648 316V318H457.648V316H455.648ZM432.898 316H430.898V318H432.898V316ZM432.898 141.5V139.5H430.898V141.5H432.898ZM455.648 141.5L457.317 140.398L456.724 139.5H455.648V141.5ZM547.148 280L545.48 281.102L549.148 286.656V280H547.148ZM547.148 141.5V139.5H545.148V141.5H547.148ZM569.898 141.5H571.898V139.5H569.898V141.5ZM569.898 314H547.148V318H569.898V314ZM548.818 314.899L457.318 176.149L453.979 178.351L545.479 317.101L548.818 314.899ZM453.648 177.25V316H457.648V177.25H453.648ZM455.648 314H432.898V318H455.648V314ZM434.898 316V141.5H430.898V316H434.898ZM432.898 143.5H455.648V139.5H432.898V143.5ZM453.98 142.602L545.48 281.102L548.817 278.898L457.317 140.398L453.98 142.602ZM549.148 280V141.5H545.148V280H549.148ZM547.148 143.5H569.898V139.5H547.148V143.5ZM567.898 141.5V316H571.898V141.5H567.898ZM745.68 316V318H747.68V316H745.68ZM722.93 316L721.26 317.101L721.853 318H722.93V316ZM631.43 177.25L633.099 176.149L629.43 170.584V177.25H631.43ZM631.43 316V318H633.43V316H631.43ZM608.68 316H606.68V318H608.68V316ZM608.68 141.5V139.5H606.68V141.5H608.68ZM631.43 141.5L633.098 140.398L632.505 139.5H631.43V141.5ZM722.93 280L721.261 281.102L724.93 286.656V280H722.93ZM722.93 141.5V139.5H720.93V141.5H722.93ZM745.68 141.5H747.68V139.5H745.68V141.5ZM745.68 314H722.93V318H745.68V314ZM724.599 314.899L633.099 176.149L629.76 178.351L721.26 317.101L724.599 314.899ZM629.43 177.25V316H633.43V177.25H629.43ZM631.43 314H608.68V318H631.43V314ZM610.68 316V141.5H606.68V316H610.68ZM608.68 143.5H631.43V139.5H608.68V143.5ZM629.761 142.602L721.261 281.102L724.598 278.898L633.098 140.398L629.761 142.602ZM724.93 280V141.5H720.93V280H724.93ZM722.93 143.5H745.68V139.5H722.93V143.5ZM743.68 141.5V316H747.68V141.5H743.68ZM819.211 306.5L818.214 308.234L818.222 308.239L818.23 308.243L819.211 306.5ZM787.461 274.75L785.717 275.729L785.724 275.741L785.731 275.754L787.461 274.75ZM787.461 183L785.726 182.005L785.722 182.012L787.461 183ZM819.211 151.25L820.191 152.993L820.2 152.989L820.208 152.984L819.211 151.25ZM907.961 151.25L906.964 152.984L906.972 152.989L906.98 152.993L907.961 151.25ZM939.461 182.75L941.2 181.762L941.2 181.762L939.461 182.75ZM907.961 306.5L908.941 308.243L908.95 308.239L908.958 308.234L907.961 306.5ZM896.211 289.5L895.212 287.767L895.206 287.771L895.2 287.775L896.211 289.5ZM919.211 265.25L917.451 264.3L917.445 264.311L917.439 264.322L919.211 265.25ZM919.211 192.25L917.439 193.178L917.448 193.195L917.457 193.212L919.211 192.25ZM896.461 168L895.45 169.725L895.45 169.725L896.461 168ZM830.461 168L831.472 169.725L831.472 169.725L830.461 168ZM807.461 192.25L805.701 191.3L805.695 191.31L807.461 192.25ZM807.461 265.25L805.689 266.178L805.695 266.189L805.701 266.2L807.461 265.25ZM830.461 289.5L829.45 291.225L829.456 291.229L829.462 291.233L830.461 289.5ZM863.461 315.75C847.618 315.75 833.208 312.079 820.191 304.757L818.23 308.243C831.88 315.921 846.971 319.75 863.461 319.75V315.75ZM820.208 304.766C807.183 297.277 796.851 286.948 789.191 273.746L785.731 275.754C793.738 289.552 804.572 300.39 818.214 308.234L820.208 304.766ZM789.205 273.771C781.72 260.429 777.961 245.437 777.961 228.75H773.961C773.961 246.063 777.868 261.738 785.717 275.729L789.205 273.771ZM777.961 228.75C777.961 212.062 781.72 197.158 789.2 183.988L785.722 182.012C777.868 195.842 773.961 211.438 773.961 228.75H777.961ZM789.196 183.995C796.856 170.631 807.182 160.311 820.191 152.993L818.23 149.507C804.573 157.189 793.733 168.035 785.726 182.005L789.196 183.995ZM820.208 152.984C833.222 145.501 847.626 141.75 863.461 141.75V137.75C846.963 137.75 831.866 141.666 818.214 149.516L820.208 152.984ZM863.461 141.75C879.467 141.75 893.953 145.502 906.964 152.984L908.958 149.516C895.302 141.664 880.122 137.75 863.461 137.75V141.75ZM906.98 152.993C919.992 160.312 930.232 170.549 937.722 183.738L941.2 181.762C933.357 167.951 922.597 157.188 908.941 149.507L906.98 152.993ZM937.722 183.738C945.2 196.906 948.961 211.892 948.961 228.75H952.961C952.961 211.275 949.055 195.594 941.2 181.762L937.722 183.738ZM948.961 228.75C948.961 245.608 945.2 260.594 937.722 273.762L941.2 275.738C949.055 261.906 952.961 246.225 952.961 228.75H948.961ZM937.722 273.762C930.23 286.955 919.985 297.279 906.964 304.766L908.958 308.234C922.604 300.387 933.359 289.545 941.2 275.738L937.722 273.762ZM906.98 304.757C893.967 312.077 879.475 315.75 863.461 315.75V319.75C880.114 319.75 895.289 315.923 908.941 308.243L906.98 304.757ZM863.461 300C875.952 300 887.223 297.087 897.222 291.225L895.2 287.775C885.866 293.246 875.304 296 863.461 296V300ZM897.21 291.233C907.387 285.368 915.315 276.999 920.983 266.178L917.439 264.322C912.107 274.501 904.702 282.299 895.212 287.767L897.21 291.233ZM920.971 266.2C926.819 255.365 929.711 242.862 929.711 228.75H925.711C925.711 242.305 922.937 254.135 917.451 264.3L920.971 266.2ZM929.711 228.75C929.711 214.477 926.821 201.967 920.965 191.288L917.457 193.212C922.934 203.199 925.711 215.023 925.711 228.75H929.711ZM920.983 191.322C915.319 180.51 907.481 172.142 897.472 166.275L895.45 169.725C904.774 175.192 912.103 182.99 917.439 193.178L920.983 191.322ZM897.472 166.275C887.469 160.41 876.113 157.5 863.461 157.5V161.5C875.476 161.5 886.12 164.256 895.45 169.725L897.472 166.275ZM863.461 157.5C850.809 157.5 839.453 160.41 829.449 166.275L831.472 169.725C840.802 164.256 851.446 161.5 863.461 161.5V157.5ZM829.45 166.275C819.446 172.139 811.53 180.5 805.701 191.3L809.221 193.2C814.726 183 822.142 175.195 831.472 169.725L829.45 166.275ZM805.695 191.31C800.014 201.985 797.211 214.486 797.211 228.75H801.211C801.211 215.014 803.908 203.182 809.226 193.19L805.695 191.31ZM797.211 228.75C797.211 242.852 800.016 255.347 805.689 266.178L809.233 264.322C803.906 254.153 801.211 242.314 801.211 228.75H797.211ZM805.701 266.2C811.53 277 819.446 285.361 829.45 291.225L831.472 287.775C822.142 282.305 814.726 274.5 809.221 264.3L805.701 266.2ZM829.462 291.233C839.621 297.087 850.97 300 863.461 300V296C851.619 296 840.967 293.246 831.46 287.767L829.462 291.233ZM1072.74 316L1071.02 317.007L1071.59 318H1072.74V316ZM1031.24 244.75L1032.97 243.743L1032.39 242.75H1031.24V244.75ZM1003.74 244.75V242.75H1001.74V244.75H1003.74ZM1003.74 316V318H1005.74V316H1003.74ZM980.994 316H978.994V318H980.994V316ZM980.994 141.75V139.75H978.994V141.75H980.994ZM1070.49 148.5L1069.6 150.289L1069.61 150.292L1069.61 150.295L1070.49 148.5ZM1087.24 224.75L1085.65 223.536L1085.65 223.545L1085.64 223.555L1087.24 224.75ZM1056.24 243L1055.82 241.045L1053.1 241.636L1054.53 244.028L1056.24 243ZM1099.99 316V318H1103.52L1101.71 314.972L1099.99 316ZM1003.74 226.5H1001.74V228.5H1003.74V226.5ZM1064.99 217.5L1066.39 218.933L1066.4 218.924L1066.41 218.914L1064.99 217.5ZM1064.99 169L1063.62 170.454L1063.63 170.463L1063.64 170.473L1064.99 169ZM1003.74 160.5V158.5H1001.74V160.5H1003.74ZM1074.47 314.993L1032.97 243.743L1029.52 245.757L1071.02 317.007L1074.47 314.993ZM1031.24 242.75H1003.74V246.75H1031.24V242.75ZM1001.74 244.75V316H1005.74V244.75H1001.74ZM1003.74 314H980.994V318H1003.74V314ZM982.994 316V141.75H978.994V316H982.994ZM980.994 143.75H1037.24V139.75H980.994V143.75ZM1037.24 143.75C1050.19 143.75 1060.95 145.964 1069.6 150.289L1071.39 146.711C1062.04 142.036 1050.63 139.75 1037.24 139.75V143.75ZM1069.61 150.295C1078.48 154.649 1085 160.482 1089.27 167.762L1092.72 165.738C1087.99 157.685 1080.84 151.351 1071.38 146.705L1069.61 150.295ZM1089.27 167.762C1093.57 175.09 1095.74 183.484 1095.74 193H1099.74C1099.74 182.85 1097.42 173.743 1092.72 165.738L1089.27 167.762ZM1095.74 193C1095.74 204.58 1092.38 214.733 1085.65 223.536L1088.83 225.964C1096.11 216.434 1099.74 205.42 1099.74 193H1095.74ZM1085.64 223.555C1079.16 232.248 1069.3 238.122 1055.82 241.045L1056.67 244.955C1070.86 241.878 1081.66 235.585 1088.85 225.945L1085.64 223.555ZM1054.53 244.028L1098.28 317.028L1101.71 314.972L1057.96 241.972L1054.53 244.028ZM1099.99 314H1072.74V318H1099.99V314ZM1003.74 228.5H1037.24V224.5H1003.74V228.5ZM1037.24 228.5C1049.87 228.5 1059.71 225.429 1066.39 218.933L1063.6 216.067C1057.94 221.571 1049.28 224.5 1037.24 224.5V228.5ZM1066.41 218.914C1073.01 212.31 1076.24 203.602 1076.24 193H1072.24C1072.24 202.731 1069.31 210.356 1063.58 216.086L1066.41 218.914ZM1076.24 193C1076.24 182.248 1073.02 173.659 1066.35 167.527L1063.64 170.473C1069.3 175.675 1072.24 183.086 1072.24 193H1076.24ZM1066.37 167.546C1059.84 161.385 1050 158.5 1037.24 158.5V162.5C1049.49 162.5 1058.14 165.281 1063.62 170.454L1066.37 167.546ZM1037.24 158.5H1003.74V162.5H1037.24V158.5ZM1001.74 160.5V226.5H1005.74V160.5H1001.74Z" fill="black"/>
</svg>
